<svg width="24" height="24" viewBox="0 0 24 24" fill="none" xmlns="http://www.w3.org/2000/svg">
<path d="M20.1851 11.9651C20.1851 16.8247 16.3285 20.7642 11.5711 20.7642C6.81367 20.7642 2.95703 16.8247 2.95703 11.9651C2.95703 7.10551 6.81367 3.16602 11.5711 3.16602C16.3285 3.16602 20.1851 7.10551 20.1851 11.9651ZM4.25626 11.9651C4.25626 16.0918 7.53122 19.4371 11.5711 19.4371C15.6109 19.4371 18.8859 16.0918 18.8859 11.9651C18.8859 7.83847 15.6109 4.49316 11.5711 4.49316C7.53122 4.49316 4.25626 7.83847 4.25626 11.9651Z" fill="#2196F3"/>
<ellipse cx="11.611" cy="3.71791" rx="0.97432" ry="0.995251" fill="#FFFEFD"/>
<path d="M13.2955 3.71907C13.2955 4.66849 12.5421 5.43814 11.6126 5.43814C10.6832 5.43814 9.92969 4.66849 9.92969 3.71907C9.92969 2.76965 10.6832 2 11.6126 2C12.5421 2 13.2955 2.76965 13.2955 3.71907ZM10.7856 3.71907C10.7856 4.18564 11.1558 4.56387 11.6126 4.56387C12.0694 4.56387 12.4396 4.18564 12.4396 3.71907C12.4396 3.2525 12.0694 2.87427 11.6126 2.87427C11.1558 2.87427 10.7856 3.2525 10.7856 3.71907Z" fill="#2196F3"/>
<ellipse cx="11.611" cy="19.7804" rx="0.97432" ry="0.995251" fill="#FFFEFD"/>
<path d="M13.2955 19.7816C13.2955 20.731 12.5421 21.5006 11.6126 21.5006C10.6832 21.5006 9.92969 20.731 9.92969 19.7816C9.92969 18.8322 10.6832 18.0625 11.6126 18.0625C12.5421 18.0625 13.2955 18.8322 13.2955 19.7816ZM10.7856 19.7816C10.7856 20.2481 11.1558 20.6264 11.6126 20.6264C12.0694 20.6264 12.4396 20.2481 12.4396 19.7816C12.4396 19.315 12.0694 18.9368 11.6126 18.9368C11.1558 18.9368 10.7856 19.315 10.7856 19.7816Z" fill="#2196F3"/>
<ellipse cx="19.8142" cy="11.8195" rx="0.97432" ry="0.995251" fill="#FFFEFD"/>
<path d="M21.4986 11.8187C21.4986 12.7681 20.7452 13.5377 19.8157 13.5377C18.8863 13.5377 18.1328 12.7681 18.1328 11.8187C18.1328 10.8693 18.8863 10.0996 19.8157 10.0996C20.7452 10.0996 21.4986 10.8693 21.4986 11.8187ZM18.9887 11.8187C18.9887 12.2852 19.359 12.6635 19.8157 12.6635C20.2725 12.6635 20.6428 12.2852 20.6428 11.8187C20.6428 11.3521 20.2725 10.9739 19.8157 10.9739C19.359 10.9739 18.9887 11.3521 18.9887 11.8187Z" fill="#2196F3"/>
<ellipse cx="3.68135" cy="11.9581" rx="0.97432" ry="0.995251" fill="#FFFEFD"/>
<path d="M5.36583 11.8187C5.36583 12.7681 4.61237 13.5377 3.68292 13.5377C2.75347 13.5377 2 12.7681 2 11.8187C2 10.8693 2.75347 10.0996 3.68292 10.0996C4.61237 10.0996 5.36583 10.8693 5.36583 11.8187ZM2.85589 11.8187C2.85589 12.2852 3.22616 12.6635 3.68292 12.6635C4.13967 12.6635 4.50995 12.2852 4.50995 11.8187C4.50995 11.3521 4.13967 10.9739 3.68292 10.9739C3.22616 10.9739 2.85589 11.3521 2.85589 11.8187Z" fill="#2196F3"/>
<ellipse cx="5.73213" cy="6.089" rx="0.97432" ry="0.995251" fill="#FFFEFD"/>
<path d="M7.41661 6.09016C7.41661 7.03958 6.66315 7.80923 5.7337 7.80923C4.80425 7.80923 4.05078 7.03958 4.05078 6.09016C4.05078 5.14075 4.80425 4.37109 5.7337 4.37109C6.66315 4.37109 7.41661 5.14075 7.41661 6.09016ZM4.90667 6.09016C4.90667 6.55673 5.27694 6.93496 5.7337 6.93496C6.19045 6.93496 6.56073 6.55673 6.56073 6.09016C6.56073 5.6236 6.19045 5.24537 5.7337 5.24537C5.27694 5.24537 4.90667 5.6236 4.90667 6.09016Z" fill="#2196F3"/>
<ellipse cx="17.6306" cy="17.546" rx="0.97432" ry="0.995251" fill="#FFFEFD"/>
<path d="M19.3111 17.5472C19.3111 18.4966 18.5577 19.2663 17.6282 19.2663C16.6988 19.2663 15.9453 18.4966 15.9453 17.5472C15.9453 16.5978 16.6988 15.8281 17.6282 15.8281C18.5577 15.8281 19.3111 16.5978 19.3111 17.5472ZM16.8012 17.5472C16.8012 18.0138 17.1715 18.392 17.6282 18.392C18.085 18.392 18.4553 18.0138 18.4553 17.5472C18.4553 17.0806 18.085 16.7024 17.6282 16.7024C17.1715 16.7024 16.8012 17.0806 16.8012 17.5472Z" fill="#2196F3"/>
<ellipse cx="17.6306" cy="6.089" rx="0.97432" ry="0.995251" fill="#FFFEFD"/>
<path d="M19.3111 6.09016C19.3111 7.03958 18.5577 7.80923 17.6282 7.80923C16.6988 7.80923 15.9453 7.03958 15.9453 6.09016C15.9453 5.14075 16.6988 4.37109 17.6282 4.37109C18.5577 4.37109 19.3111 5.14075 19.3111 6.09016ZM16.8012 6.09016C16.8012 6.55673 17.1715 6.93496 17.6282 6.93496C18.085 6.93496 18.4553 6.55673 18.4553 6.09016C18.4553 5.6236 18.085 5.24537 17.6282 5.24537C17.1715 5.24537 16.8012 5.6236 16.8012 6.09016Z" fill="#2196F3"/>
<ellipse cx="5.45869" cy="17.546" rx="0.97432" ry="0.995251" fill="#FFFEFD"/>
<path d="M7.14318 17.5472C7.14318 18.4966 6.38971 19.2663 5.46026 19.2663C4.53081 19.2663 3.77734 18.4966 3.77734 17.5472C3.77734 16.5978 4.53081 15.8281 5.46026 15.8281C6.38971 15.8281 7.14318 16.5978 7.14318 17.5472ZM4.63323 17.5472C4.63323 18.0138 5.0035 18.392 5.46026 18.392C5.91702 18.392 6.28729 18.0138 6.28729 17.5472C6.28729 17.0806 5.91702 16.7024 5.46026 16.7024C5.0035 16.7024 4.63323 17.0806 4.63323 17.5472Z" fill="#2196F3"/>
</svg>
